<?xml version="1.0" encoding="UTF-8" standalone="no"?>
<svg
   xmlns:dc="http://purl.org/dc/elements/1.1/"
   xmlns:cc="http://creativecommons.org/ns#"
   xmlns:rdf="http://www.w3.org/1999/02/22-rdf-syntax-ns#"
   xmlns:svg="http://www.w3.org/2000/svg"
   xmlns="http://www.w3.org/2000/svg"
   xmlns:sodipodi="http://sodipodi.sourceforge.net/DTD/sodipodi-0.dtd"
   xmlns:inkscape="http://www.inkscape.org/namespaces/inkscape"
   inkscape:version="1.0 (4035a4fb49, 2020-05-01)"
   sodipodi:docname="as.svg"
   id="svg39"
   version="1.1"
   viewBox="0 0 120 227"
   height="227px"
   width="120px">
  <metadata
     id="metadata43">
    <rdf:RDF>
      <cc:Work
         rdf:about="">
        <dc:format>image/svg+xml</dc:format>
        <dc:type
           rdf:resource="http://purl.org/dc/dcmitype/StillImage" />
        <dc:title></dc:title>
      </cc:Work>
    </rdf:RDF>
  </metadata>
  <sodipodi:namedview
     inkscape:current-layer="svg39"
     inkscape:window-maximized="1"
     inkscape:window-y="-8"
     inkscape:window-x="-8"
     inkscape:cy="203.32817"
     inkscape:cx="134.47448"
     inkscape:zoom="1.8722467"
     inkscape:lockguides="true"
     showgrid="false"
     id="namedview41"
     inkscape:window-height="1017"
     inkscape:window-width="1920"
     inkscape:pageshadow="2"
     inkscape:pageopacity="0"
     guidetolerance="10"
     gridtolerance="10"
     objecttolerance="10"
     borderopacity="1"
     bordercolor="#666666"
     pagecolor="#ffffff" />
  <!-- Generator: Sketch 46.2 (44496) - http://www.bohemiancoding.com/sketch -->
  <desc
     id="desc4">Created with Sketch.</desc>
  <defs
     id="defs8">
    <polygon
       points="28.2452367 115 0 115 0 0.548255814 28.2452367 0.548255814 56.4904734 0.548255814 56.4904734 115"
       id="path-1" />
    <polygon
       points="8.7732 0.316965957 8.7732 41.9130511 9e-05 41.9130511 9e-05 0.316965957 8.7732 0.316965957"
       id="path-3" />
  </defs>
  <rect
     y="-0.13352941"
     x="-0.26705882"
     height="227.06987"
     width="120.38821"
     id="rect876"
     style="opacity:1;fill:#ffffff;fill-opacity:1;stroke:#000000;stroke-opacity:1" />
  <path
     id="path1016"
     style="fill:#000000;fill-opacity:1;stroke:none;stroke-width:0.908264px;stroke-linecap:butt;stroke-linejoin:miter;stroke-opacity:1"
     d="m 65.666408,94.9455 a 7.384325,7.384325 0 0 0 -7.352194,7.38532 7.384325,7.384325 0 0 0 1.809081,4.84077 7.384325,7.384325 0 0 0 -1.648278,-0.18683 7.384325,7.384325 0 0 0 -7.38531,7.38532 7.384325,7.384325 0 0 0 7.38531,7.38293 7.384325,7.384325 0 0 0 6.626211,-4.12895 c -0.421149,2.54124 -1.018282,5.05183 -4.197547,7.11335 h 4.956649 4.954274 c -3.176447,-2.0597 -3.777163,-4.56739 -4.197537,-7.10626 a 7.384325,7.384325 0 0 0 6.626199,4.12186 7.384325,7.384325 0 0 0 7.385314,-7.38293 7.384325,7.384325 0 0 0 -7.385314,-7.38532 7.384325,7.384325 0 0 0 -2.069203,0.29797 7.384325,7.384325 0 0 0 1.9084,-4.95191 7.384325,7.384325 0 0 0 -7.382936,-7.38532 7.384325,7.384325 0 0 0 -0.03314,0 z" />
  <path
     d="m 12.914497,23.63014 a 3.7302537,3.7302537 0 0 0 -3.7140216,3.730748 3.7302537,3.7302537 0 0 0 0.9138726,2.44536 3.7302537,3.7302537 0 0 0 -0.8326417,-0.09438 3.7302537,3.7302537 0 0 0 -3.7307519,3.730753 3.7302537,3.7302537 0 0 0 3.7307519,3.729551 3.7302537,3.7302537 0 0 0 3.3472857,-2.085774 c -0.212747,1.283728 -0.514393,2.551972 -2.120425,3.59337 h 2.503891 2.502694 c -1.604609,-1.040469 -1.908065,-2.307254 -2.12042,-3.589785 a 3.7302537,3.7302537 0 0 0 3.347279,2.082193 3.7302537,3.7302537 0 0 0 3.730754,-3.729551 3.7302537,3.7302537 0 0 0 -3.730754,-3.730753 3.7302537,3.7302537 0 0 0 -1.045275,0.15052 3.7302537,3.7302537 0 0 0 0.964044,-2.501504 3.7302537,3.7302537 0 0 0 -3.729553,-3.730748 3.7302537,3.7302537 0 0 0 -0.01674,0 z"
     style="fill:#000000;fill-opacity:1;stroke:none;stroke-width:0.458818px;stroke-linecap:butt;stroke-linejoin:miter;stroke-opacity:1"
     id="path1064" />
  <text
     xml:space="preserve"
     style="font-style:normal;font-variant:normal;font-weight:normal;font-stretch:normal;font-size:33.0746px;line-height:1.25;font-family:'Bradley Hand ITC';-inkscape-font-specification:'Bradley Hand ITC';fill:#000000;fill-opacity:1;stroke:none;stroke-width:0.172264"
     x="2.2319162"
     y="20.051346"
     id="text1068"><tspan
       sodipodi:role="line"
       id="tspan1066"
       x="2.2319162"
       y="20.051346"
       style="font-style:normal;font-variant:normal;font-weight:normal;font-stretch:normal;font-size:33.0746px;font-family:'Bradley Hand ITC';-inkscape-font-specification:'Bradley Hand ITC';stroke-width:0.172264">A</tspan></text>
  <path
     id="path1072"
     style="fill:#000000;fill-opacity:1;stroke:none;stroke-width:0.458818px;stroke-linecap:butt;stroke-linejoin:miter;stroke-opacity:1"
     d="m 106.74468,203.05267 a 3.7302537,3.7302537 0 0 0 3.71402,-3.73075 3.7302537,3.7302537 0 0 0 -0.91387,-2.44536 3.7302537,3.7302537 0 0 0 0.83264,0.0944 3.7302537,3.7302537 0 0 0 3.73075,-3.73075 3.7302537,3.7302537 0 0 0 -3.73075,-3.72955 3.7302537,3.7302537 0 0 0 -3.34729,2.08577 c 0.21275,-1.28373 0.5144,-2.55198 2.12043,-3.59337 h -2.50389 -2.5027 c 1.60461,1.04047 1.90807,2.30726 2.12042,3.58979 a 3.7302537,3.7302537 0 0 0 -3.34727,-2.08219 3.7302537,3.7302537 0 0 0 -3.730763,3.72955 3.7302537,3.7302537 0 0 0 3.730763,3.73075 3.7302537,3.7302537 0 0 0 1.04527,-0.15052 3.7302537,3.7302537 0 0 0 -0.96405,2.5015 3.7302537,3.7302537 0 0 0 3.72955,3.73075 3.7302537,3.7302537 0 0 0 0.0167,0 z" />
  <text
     id="text1076"
     y="-206.63147"
     x="-117.42727"
     style="font-style:normal;font-variant:normal;font-weight:normal;font-stretch:normal;font-size:33.0746px;line-height:1.25;font-family:'Bradley Hand ITC';-inkscape-font-specification:'Bradley Hand ITC';fill:#000000;fill-opacity:1;stroke:none;stroke-width:0.172264"
     xml:space="preserve"
     transform="scale(-1)"><tspan
       style="font-style:normal;font-variant:normal;font-weight:normal;font-stretch:normal;font-size:33.0746px;font-family:'Bradley Hand ITC';-inkscape-font-specification:'Bradley Hand ITC';stroke-width:0.172264"
       y="-206.63147"
       x="-117.42727"
       id="tspan1074"
       sodipodi:role="line">A</tspan></text>
</svg>
