<?xml version="1.0" encoding="UTF-8" standalone="no"?>
<svg
   xmlns:dc="http://purl.org/dc/elements/1.1/"
   xmlns:cc="http://creativecommons.org/ns#"
   xmlns:rdf="http://www.w3.org/1999/02/22-rdf-syntax-ns#"
   xmlns:svg="http://www.w3.org/2000/svg"
   xmlns="http://www.w3.org/2000/svg"
   xmlns:sodipodi="http://sodipodi.sourceforge.net/DTD/sodipodi-0.dtd"
   xmlns:inkscape="http://www.inkscape.org/namespaces/inkscape"
   inkscape:version="1.0 (4035a4fb49, 2020-05-01)"
   sodipodi:docname="three.svg"
   id="svg39"
   version="1.1"
   viewBox="0 0 120 227"
   height="227px"
   width="120px">
  <metadata
     id="metadata43">
    <rdf:RDF>
      <cc:Work
         rdf:about="">
        <dc:format>image/svg+xml</dc:format>
        <dc:type
           rdf:resource="http://purl.org/dc/dcmitype/StillImage" />
        <dc:title></dc:title>
      </cc:Work>
    </rdf:RDF>
  </metadata>
  <sodipodi:namedview
     inkscape:current-layer="svg39"
     inkscape:window-maximized="1"
     inkscape:window-y="-8"
     inkscape:window-x="-8"
     inkscape:cy="100.85045"
     inkscape:cx="7.0283647"
     inkscape:zoom="1.8722467"
     inkscape:lockguides="true"
     showgrid="false"
     id="namedview41"
     inkscape:window-height="1017"
     inkscape:window-width="1920"
     inkscape:pageshadow="2"
     inkscape:pageopacity="0"
     guidetolerance="10"
     gridtolerance="10"
     objecttolerance="10"
     borderopacity="1"
     bordercolor="#666666"
     pagecolor="#ffffff" />
  <!-- Generator: Sketch 46.2 (44496) - http://www.bohemiancoding.com/sketch -->
  <desc
     id="desc4">Created with Sketch.</desc>
  <defs
     id="defs8">
    <polygon
       points="28.2452367 115 0 115 0 0.548255814 28.2452367 0.548255814 56.4904734 0.548255814 56.4904734 115"
       id="path-1" />
    <polygon
       points="8.7732 0.316965957 8.7732 41.9130511 9e-05 41.9130511 9e-05 0.316965957 8.7732 0.316965957"
       id="path-3" />
  </defs>
  <rect
     y="-0.13352941"
     x="-0.26705882"
     height="227.06987"
     width="120.38821"
     id="rect876"
     style="opacity:1;fill:#ffffff;fill-opacity:1;stroke:#000000;stroke-opacity:1" />
  <text
     xml:space="preserve"
     style="font-style:normal;font-variant:normal;font-weight:normal;font-stretch:normal;font-size:37.438px;line-height:1.25;font-family:'Bradley Hand ITC';-inkscape-font-specification:'Bradley Hand ITC';fill:#cf0000;fill-opacity:1;stroke:none;stroke-width:0.194989"
     x="-0.93618804"
     y="22.675833"
     id="text1068"><tspan
       sodipodi:role="line"
       id="tspan1066"
       x="-0.93618804"
       y="22.675833"
       style="font-style:normal;font-variant:normal;font-weight:normal;font-stretch:normal;font-size:37.438px;font-family:'Bradley Hand ITC';-inkscape-font-specification:'Bradley Hand ITC';fill:#cf0000;fill-opacity:1;stroke-width:0.194989">3</tspan></text>
  <path
     id="path1094"
     style="fill:#cf0000;fill-opacity:1;stroke:none;stroke-width:0.194989px;stroke-linecap:butt;stroke-linejoin:miter;stroke-opacity:1"
     d="m 58.629732,13.070958 c -2.409,5.073131 -4.43595,10.110649 -12.54713,15.718359 h 0.13787 c 8.11118,5.607711 10.13812,10.644851 12.54711,15.717982 2.40901,-5.073131 4.43557,-10.110271 12.54675,-15.717982 h -0.13787 c -8.11118,-5.60771 -10.13774,-10.645228 -12.54673,-15.718359 z" />
  <path
     d="m 9.596499,24.380346 c -1.48748,3.132488 -2.73904,6.242988 -7.74742,9.70556 h 0.0851 c 5.00838,3.462573 6.25995,6.572837 7.74743,9.705325 1.48747,-3.132488 2.7388,-6.242752 7.74718,-9.705325 h -0.0851 c -5.00838,-3.462572 -6.25972,-6.573072 -7.74719,-9.70556 z"
     style="fill:#cf0000;fill-opacity:1;stroke:none;stroke-width:0.120399px;stroke-linecap:butt;stroke-linejoin:miter;stroke-opacity:1"
     id="path1103" />
  <text
     id="text1107"
     y="-205.19373"
     x="-119.52712"
     style="font-style:normal;font-variant:normal;font-weight:normal;font-stretch:normal;font-size:37.438px;line-height:1.25;font-family:'Bradley Hand ITC';-inkscape-font-specification:'Bradley Hand ITC';fill:#cf0000;fill-opacity:1;stroke:none;stroke-width:0.194989"
     xml:space="preserve"
     transform="scale(-1)"><tspan
       style="font-style:normal;font-variant:normal;font-weight:normal;font-stretch:normal;font-size:37.438px;font-family:'Bradley Hand ITC';-inkscape-font-specification:'Bradley Hand ITC';fill:#cf0000;fill-opacity:1;stroke-width:0.194989"
       y="-205.19373"
       x="-119.52712"
       id="tspan1105"
       sodipodi:role="line">3</tspan></text>
  <path
     id="path1113"
     style="fill:#cf0000;fill-opacity:1;stroke:none;stroke-width:0.120399px;stroke-linecap:butt;stroke-linejoin:miter;stroke-opacity:1"
     d="m 108.99444,203.48921 c 1.48748,-3.1325 2.73905,-6.24299 7.74742,-9.70557 h -0.0851 c -5.00837,-3.46257 -6.25994,-6.57283 -7.74742,-9.70532 -1.48747,3.13249 -2.73881,6.24275 -7.74718,9.70532 h 0.0851 c 5.00837,3.46258 6.2597,6.57307 7.74718,9.70557 z" />
  <path
     id="path1117"
     style="fill:#cf0000;fill-opacity:1;stroke:none;stroke-width:0.194989px;stroke-linecap:butt;stroke-linejoin:miter;stroke-opacity:1"
     d="m 58.629732,214.7986 c -2.409,-5.07314 -4.43594,-10.11066 -12.54713,-15.71837 h 0.13788 c 8.11118,-5.6077 10.13812,-10.64485 12.54711,-15.71798 2.409,5.07313 4.43556,10.11028 12.54674,15.71798 h -0.13787 c -8.11117,5.60771 -10.13773,10.64523 -12.54673,15.71837 z" />
  <path
     d="m 58.629732,133.0786 c -2.409,-5.07314 -4.43594,-10.11066 -12.54713,-15.71837 h 0.13788 c 8.11118,-5.6077 10.13812,-10.64485 12.54711,-15.71798 2.409,5.07313 4.43556,10.11028 12.54674,15.71798 h -0.13787 c -8.11117,5.60771 -10.13773,10.64523 -12.54673,15.71837 z"
     style="fill:#cf0000;fill-opacity:1;stroke:none;stroke-width:0.194989px;stroke-linecap:butt;stroke-linejoin:miter;stroke-opacity:1"
     id="path2857" />
</svg>
